<?xml version="1.0" standalone="no"?>
<!DOCTYPE svg PUBLIC "-//W3C//DTD SVG 20010904//EN"
 "http://www.w3.org/TR/2001/REC-SVG-20010904/DTD/svg10.dtd">
<svg version="1.0" xmlns="http://www.w3.org/2000/svg"
 width="1750.000000pt" height="1750.000000pt" viewBox="0 0 1750.000000 1750.000000"
 preserveAspectRatio="xMidYMid meet">
<metadata>
Created by potrace 1.14, written by Peter Selinger 2001-2017
</metadata>
<g transform="translate(0.000000,1750.000000) scale(0.100000,-0.100000)"
fill="#000000" stroke="none">
<path d="M7978 16805 c-3 -3 -27 -10 -54 -15 -27 -5 -76 -16 -109 -24 -33 -8
-123 -29 -200 -46 -77 -18 -250 -59 -385 -91 -135 -33 -290 -71 -345 -84 -55
-13 -152 -36 -215 -50 -154 -35 -390 -91 -705 -169 -143 -35 -280 -67 -305
-71 -25 -3 -232 -51 -460 -106 -428 -103 -789 -189 -990 -235 -63 -14 -214
-50 -335 -79 -187 -45 -546 -131 -1020 -244 l-110 -26 -3 -3212 c-1 -2072 1
-3221 8 -3237 8 -22 16 -26 47 -26 20 0 62 -5 92 -10 51 -9 362 -56 671 -100
129 -19 245 -36 460 -69 69 -11 175 -27 235 -36 61 -8 164 -24 230 -35 66 -10
147 -22 180 -25 33 -4 166 -24 295 -45 129 -21 264 -41 300 -45 36 -4 171 -24
300 -45 129 -21 264 -41 300 -45 36 -4 144 -19 240 -35 96 -16 202 -32 235
-35 33 -3 97 -13 141 -21 45 -8 129 -21 185 -28 104 -15 245 -35 414 -62 50
-7 158 -23 240 -34 83 -11 188 -26 235 -34 101 -18 277 -45 378 -58 l72 -10 0
-3811 c0 -2096 4 -3815 8 -3819 5 -5 105 -7 223 -6 l214 3 3 2117 2 2118 973
2 972 3 0 220 0 220 -972 3 -973 2 0 1471 0 1470 2543 -2 2542 -2 3 213 c2
148 -1 217 -9 226 -10 12 -160 14 -918 14 l-906 0 -180 65 c-99 36 -186 65
-194 65 -8 0 -11 3 -7 7 4 5 60 11 124 14 83 4 142 13 202 31 47 14 137 34
200 43 63 9 120 20 125 24 6 5 24 11 42 14 18 4 50 18 73 32 22 14 46 25 53
25 8 0 27 6 43 14 16 8 49 17 74 21 39 6 106 27 175 56 34 14 107 40 180 63
39 13 77 25 85 29 8 3 60 20 115 37 55 17 109 37 120 44 11 7 32 16 47 20 15
3 42 19 60 34 49 41 125 92 137 92 5 0 30 19 55 43 59 55 85 77 92 77 15 0 74
90 74 112 0 6 11 34 25 62 13 28 29 79 34 112 5 34 14 70 20 80 12 23 31 126
31 169 0 17 5 36 11 42 5 5 14 46 18 90 5 44 12 86 16 92 11 19 25 189 33 406
7 184 9 202 28 221 20 20 46 34 73 40 7 1 23 12 35 23 12 12 29 21 37 21 8 0
37 8 65 19 28 10 69 21 90 25 21 4 48 13 59 21 12 7 48 18 80 25 33 7 68 16
77 21 9 5 62 15 118 23 55 8 111 21 123 29 13 8 49 23 82 32 33 10 81 27 108
39 l47 21 -2 80 -3 80 -45 7 c-25 4 -101 12 -170 17 -69 5 -182 15 -252 22
l-127 13 -3 412 -3 412 -32 40 c-18 23 -33 45 -33 49 0 26 -166 161 -233 191
-32 14 -251 15 -337 2 -30 -5 -95 -15 -145 -23 -49 -8 -128 -20 -175 -26 -47
-7 -104 -16 -128 -22 -23 -5 -56 -9 -73 -9 -16 0 -51 -9 -76 -21 -25 -11 -78
-25 -117 -29 -39 -4 -98 -15 -131 -24 -33 -8 -72 -15 -88 -16 -35 0 -127 -48
-127 -66 0 -11 -18 -14 -77 -14 -69 0 -85 -4 -157 -39 -93 -45 -176 -116 -176
-149 0 -12 -5 -22 -11 -22 -5 0 -7 -4 -4 -10 3 -5 2 -10 -4 -10 -5 0 -31 -28
-58 -62 -26 -35 -100 -124 -165 -198 -171 -196 -292 -338 -333 -391 -20 -27
-67 -41 -355 -108 -42 -10 -93 -24 -115 -31 -22 -7 -73 -21 -115 -30 -41 -9
-160 -40 -265 -68 -104 -27 -273 -71 -375 -96 -306 -76 -382 -96 -440 -113
-30 -9 -89 -24 -130 -34 -101 -23 -299 -77 -330 -89 -14 -5 -146 -23 -295 -40
-148 -17 -286 -35 -305 -40 -19 -5 -168 -25 -330 -44 -162 -20 -335 -41 -385
-48 -49 -6 -148 -18 -220 -27 l-130 -16 -3 -74 c-2 -58 1 -77 14 -92 9 -11 23
-19 30 -19 6 0 36 -16 65 -36 30 -20 77 -47 104 -61 28 -14 66 -38 85 -53 37
-28 69 -47 235 -138 55 -30 115 -65 133 -79 18 -13 85 -55 150 -92 64 -38 140
-83 167 -101 28 -18 93 -56 145 -84 52 -29 133 -76 180 -106 87 -54 159 -97
265 -158 33 -18 83 -48 112 -65 49 -31 95 -59 138 -84 11 -7 50 -13 86 -13 68
0 95 12 229 107 31 22 185 119 209 132 17 9 18 7 11 -27 -7 -37 -77 -184 -110
-232 -9 -14 -45 -79 -79 -145 -34 -65 -66 -124 -70 -130 -5 -5 -32 -54 -60
-109 -46 -88 -51 -105 -51 -163 0 -95 7 -103 91 -103 64 0 76 4 142 42 40 23
116 65 170 94 53 28 103 57 111 63 10 8 23 -2 58 -47 103 -129 135 -168 151
-181 9 -7 17 -17 17 -22 0 -5 -393 -9 -905 -9 l-905 0 0 438 0 438 -225 0
c-150 0 -225 -4 -225 -11 0 -5 -1 -187 -3 -403 l-2 -393 -23 6 c-12 3 -105 17
-205 30 -100 14 -222 32 -272 39 -162 25 -308 47 -414 62 -56 7 -140 20 -185
28 -44 8 -108 18 -141 21 -33 3 -139 19 -235 35 -96 16 -204 31 -240 35 -36 4
-171 24 -300 45 -129 21 -264 41 -300 45 -36 4 -171 24 -300 45 -129 21 -262
41 -295 45 -33 3 -114 15 -180 25 -66 11 -169 27 -230 35 -60 9 -166 25 -235
36 -215 33 -331 50 -460 69 -452 65 -714 105 -767 117 l-23 5 0 1294 c0 1028
3 1294 13 1294 8 0 7 4 -3 10 -10 6 -11 10 -2 10 6 0 12 5 12 11 0 5 -4 8 -9
5 -10 -7 -9 13 2 30 3 6 3 14 0 18 -11 10 -12 37 -2 30 5 -3 9 -1 9 5 0 5 -6
12 -12 14 -10 4 -10 6 0 6 6 1 12 6 12 12 0 5 -4 8 -9 5 -10 -6 -10 11 0 29 5
9 4 71 -1 78 -7 9 -7 36 1 31 5 -3 9 -1 9 5 0 5 -6 12 -12 14 -10 4 -10 6 0 6
6 1 12 6 12 12 0 5 -4 8 -9 5 -5 -4 -8 2 -6 11 2 10 4 18 5 18 1 0 3 12 4 27
2 15 -1 25 -6 22 -4 -3 -7 572 -6 1282 l3 1287 100 23 c175 41 772 184 1000
239 121 29 272 65 335 79 201 46 562 132 990 235 228 55 435 103 460 106 25 4
162 36 305 71 305 75 545 133 705 169 200 46 370 87 525 126 147 38 375 89
395 89 6 0 10 -823 9 -2437 0 -1921 3 -2438 13 -2444 6 -4 108 -8 225 -9 l213
-1 1 118 c0 65 0 1283 -1 2707 0 1871 -3 2593 -11 2603 -9 10 -63 13 -244 13
-127 0 -234 -2 -237 -5z"/>
</g>
</svg>
