<?xml version="1.0" encoding="UTF-8" standalone="no"?>
<svg
   viewBox="0 0 16 16"
   version="1.1"
   id="svg4"
   sodipodi:docname="discord.svg"
   inkscape:version="1.1.2 (0a00cf5339, 2022-02-04)"
   xmlns:inkscape="http://www.inkscape.org/namespaces/inkscape"
   xmlns:sodipodi="http://sodipodi.sourceforge.net/DTD/sodipodi-0.dtd"
   xmlns="http://www.w3.org/2000/svg"
   xmlns:svg="http://www.w3.org/2000/svg">
  <defs
     id="defs8" />
  <sodipodi:namedview
     id="namedview6"
     pagecolor="#ffffff"
     bordercolor="#666666"
     borderopacity="1.0"
     inkscape:pageshadow="2"
     inkscape:pageopacity="0.0"
     inkscape:pagecheckerboard="0"
     showgrid="false"
     inkscape:zoom="8.0323785"
     inkscape:cx="63.61752"
     inkscape:cy="-2.9256589"
     inkscape:window-width="1920"
     inkscape:window-height="987"
     inkscape:window-x="0"
     inkscape:window-y="0"
     inkscape:window-maximized="1"
     inkscape:current-layer="svg4" />
  <path
     d="M 13.553523,2.9525713 A 13.23263,13.23263 0 0 0 10.252602,1.937 9.0684101,9.0684101 0 0 0 9.8297619,2.7965232 a 12.292566,12.292566 0 0 0 -3.6633558,0 A 9.1074222,9.1074222 0 0 0 5.743566,1.937 13.325756,13.325756 0 0 0 2.4401277,2.9550882 C 0.35109622,6.045848 -0.21520749,9.0598423 0.06794437,12.031049 v 0 A 13.30562,13.30562 0 0 0 4.1163867,14.06345 9.7781774,9.7781774 0 0 0 4.9834606,12.665309 8.6103333,8.6103333 0 0 1 3.6180394,12.013431 c 0.1145192,-0.08306 0.2265215,-0.168633 0.3347484,-0.251691 a 9.510127,9.510127 0 0 0 8.0943682,0 c 0.109485,0.08935 0.221487,0.174925 0.334748,0.251691 a 8.6430531,8.6430531 0 0 1 -1.367938,0.653137 9.6900858,9.6900858 0 0 0 0.867074,1.396882 13.245215,13.245215 0 0 0 4.050959,-2.031142 v 0 C 16.264231,8.586664 15.364437,5.6003558 13.553523,2.9525713 Z M 5.3421196,10.203776 c -0.7890498,0 -1.4409283,-0.7160598 -1.4409283,-1.5969767 0,-0.8809169 0.6292263,-1.6032688 1.4384114,-1.6032688 0.8091851,0 1.4560298,0.7223519 1.4421868,1.6032688 -0.013843,0.8809169 -0.6355186,1.5969767 -1.4396699,1.5969767 z m 5.3157044,0 c -0.7903085,0 -1.4396701,-0.7160598 -1.4396701,-1.5969767 0,-0.8809169 0.6292263,-1.6032688 1.4396701,-1.6032688 0.810443,0 1.452254,0.7223519 1.438411,1.6032688 -0.01384,0.8809169 -0.63426,1.5969767 -1.438411,1.5969767 z"
     id="path2"
     style="stroke-width:0.125845" />
</svg>
